<svg xmlns="http://www.w3.org/2000/svg" data-name="Слой 1" viewBox="0 0 100 125" x="0px" y="0px"><title>томат-01</title><g><path d="M51.062,96.67535c-10.11575-.33832-18.69522-1.81978-26.47867-6.54762-3.54874-2.15555-5.77588-5.54155-8.42461-8.53736-3.69057-4.17405-7.37038-8.45307-9.422-13.67074C2.75564,57.7946.598,47.38057,4.92943,36.80122c2.17778-5.31907,4.35127-10.81817,8.434-15.01372a92.85436,92.85436,0,0,1,9.93691-8.28959C30.70889,7.76238,39.45868,5.28905,48.448,3.50471a18.72807,18.72807,0,0,1,7.329.5139,23.62948,23.62948,0,0,0,4.43767.44458c4.19661,0.03725,6.93358,3.18747,10.4425,4.66151a33.34693,33.34693,0,0,1,11.47369,7.9502c6.01475,6.44,11.13106,13.48257,13.1914,22.21036,0.97712,4.13907,1.88045,8.34027,1.55705,12.72211-0.164,2.22234,1.23591,4.53524.173,6.77455-1.929,4.06368-2.51225,8.669-5.03889,12.47468-1.31728,1.984-1.97748,4.267-3.19943,6.32558-5.14428,8.66635-12.955,13.66665-22.34319,16.2031C61.07195,95.24392,55.59268,96.86429,51.062,96.67535ZM37.64386,10.78743c5.69305,0.45,10.56286-2.39729,15.81068-5.21483-1.04665,3.098-4.03268,2.16737-5.84113,4.34981,3.04482-.7759,5.81857.9055,8.492-1.12662-1.16093-.64414-2.1524-0.07042-3.02976-0.85051,2.15308-.2642,4.1226.42276,6.18-0.07023-0.492,1.66774-2.32228,1.08424-3.0238,2.31506l2.74,1.09049c-3.16556-1.02625-6.01019-.23868-8.824,1.21687l2.28184-1.58757C45.79051,10.6792,39.231,10.88137,32.585,13.066l8.6798-5.724c-2.569.67537-5.18169,0.78223-7.56966,1.91083a64.64825,64.64825,0,0,0-14.70644,9.48531c-3.54319,3.0523-6.97,6.10259-8.23926,10.8585a10.542,10.542,0,0,1-1.41115,2.51787,40.0178,40.0178,0,0,0-4.64,11.1929,27.88438,27.88438,0,0,0-.20068,10.42349,50.41014,50.41014,0,0,0,3.68574,13.862c2.059,4.613,5.16348,8.46832,8.20346,12.427a33.37106,33.37106,0,0,0,15.78829,11.8057C41.00093,94.798,50.08083,96.17278,59.42836,93.917c5.792-1.39771,11.68495-2.25294,16.70549-5.92545,4.51836-3.30518,9.11688-6.45008,11.71643-11.64823,0.99064-1.9809,1.94144-3.98189,2.94438-5.95647a36.45468,36.45468,0,0,0,4.08606-12.198,56.348,56.348,0,0,0,.304-10.00613,35.41622,35.41622,0,0,0-1.9821-11.07958A67.56813,67.56813,0,0,0,85.54127,23.1994,37.58225,37.58225,0,0,0,73.44386,12.13176C67.38,8.56325,61.03011,5.56944,53.739,5.406c-2.8835-.06464-5.8319-0.74965-8.52063.75761C42.58768,7.63833,40.06241,9.30118,37.64386,10.78743Z"/><path d="M70.755,49.32c-2.9624-.6218-6.5113,1.19276-10.09367.05468a7.24161,7.24161,0,0,1-1.82416-.7766c-0.8544-.56029-1.03305-1.22911-0.18288-1.97254,2.82307-2.46878,5.29216-5.34048,8.57606-7.28571,1.94432-1.15175,2.082-2.34076.17816-3.5519-2.82488-1.797-5.60652-3.62389-8.29357-5.6284-1.48672-1.10905-3.96507.35024-4.71538,2.50967a22.14029,22.14029,0,0,1-6.92091,10.38459,3.22039,3.22039,0,0,1-3.07927.78622c-1.24508-.3636-0.72578-1.53-0.95712-2.40882a55.8416,55.8416,0,0,1-1.92259-11.101c-0.31867-5.58794,1.59906-10.25114,6.02516-13.31031a18.27276,18.27276,0,0,1,14.85111-2.66775c11.18529,2.4811,18.78737,9.3343,23.5805,19.28963,2.93,6.08559,1.41008,11.03467-4.11924,14.16045C78.71258,49.5799,74.94074,49.36057,70.755,49.32ZM66.03112,42.0868c0.918,0,1.50334-.01353,2.08778.003,1.03855,0.02934,2.226-.11454,2.64326,1.15732a2.72233,2.72233,0,0,1-.71721,2.44905,2.124,2.124,0,0,1-2.77961.71877c-1.00926-.41752-2.139-0.55136-2.88056-1.55377a0.88849,0.88849,0,0,0-1.62919-.01339,17.96891,17.96891,0,0,1-1.94265,1.79507c-0.78366.77145-.62314,1.00737,0.47812,1.39876,1.97523,0.702,3.8156-.07985,5.71165-0.09275a91.93924,91.93924,0,0,0,10.19391-.33576c6.03371-.71658,9.69192-5.865,7.78147-12.11269-1.30634-4.27191-4.10875-7.5407-7.14494-10.62225-7.4434-7.55461-16.04545-11.26527-26.76028-7.95406-3.59167,1.10993-7.80133,5.78121-7.97083,9.3781-0.19651,4.16921-.23107,8.35219,1.18313,12.37925,0.44447,1.26573.042,3.46059,1.297,3.63858,1.4426,0.20457,2.36547-1.78986,3.52789-2.81554,0.9391-.82863.57787-1.14076-0.38757-1.45869A7.77761,7.77761,0,0,1,45.62137,36.323c-0.88525-.86731-1.73029-1.98755-0.95638-3.13524,0.84039-1.24641,2.269-1.32173,3.5983-.55746a15.05665,15.05665,0,0,1,2.20379,1.50545c0.68336,0.57581,1.20316.81907,1.71188-.1584,0.4201-.80725.64537-1.39924-0.47134-1.94939a9.3228,9.3228,0,0,1-4.88228-6.56212c-0.5876-2.33178,1.18863-3.0249,2.609-3.80952,1.56013-.86184,2.85829-0.01446,3.45459,1.43442,0.79663,1.93566,2.29964,3.6229,1.96976,5.99489,2.01553-.84663,2.10311-0.875,1.92605-1.42127-1.14857-3.54378.41513-6.09136,2.96864-8.29955,1.1475-.9923,2.38126-0.63845,2.62291.88205a5.18673,5.18673,0,0,1-1.057,4.40444c-0.9569,1.148-2.03429,2.39847-1.677,4.36081,1.44557-2.06742,2.66672-3.95354,4.03661-5.72456a3.84766,3.84766,0,0,1,3.80521-1.27179,2.26632,2.26632,0,0,1,1.74834,2.09153c0.29255,1.51487-.66276,2.41138-1.76356,3.09461a30.3783,30.3783,0,0,1-3.00768,1.42157c-0.89608.42724-1.9296,0.66883-2.50862,1.59559,2.89221,2.78792,2.897,2.7945,6.08189.466A12.71235,12.71235,0,0,1,72.501,28.88768c1.89965-.50653,3.2441.2073,3.69766,1.47727,0.55383,1.55058-.92366,2.52682-2.38618,2.922-1.13418.30646-2.33692,0.3508-3.4875,0.60845-0.6713.1503-1.46552-.15331-2.15492,0.57065,0.67889,0.28841.99558,0.93929,1.77356,0.98922,1.18816,0.07628,2.37412.368,3.55456,0.33527A2.50087,2.50087,0,0,1,76.094,37.44709c0.55037,1.15293-.21219,1.93184-0.73042,2.64211a2.2032,2.2032,0,0,1-2.87482.46121C70.08924,39.4074,68.01151,39.56373,66.03112,42.0868ZM53.56055,30.07451a11.05717,11.05717,0,0,0-1.629-5.74059c-0.33084-.60464-0.35263-1.84918-1.59845-1.36729-1.078.417-1.97482,1.03112-1.86367,2.4439a7.08864,7.08864,0,0,0,4.10339,5.41056C53.40091,31.08872,53.57341,30.66932,53.56055,30.07451Zm9.58939-2.75415a5.64367,5.64367,0,0,0,3.66544-1.585c0.45392-.365,1.38807-0.788.77625-1.54785a1.50261,1.50261,0,0,0-2.35624-.12681C64.44846,24.99457,63.235,25.70265,63.14995,27.32036Zm5.69726,4.9363a9.49033,9.49033,0,0,0,4.87195-.45389,1.05514,1.05514,0,0,0,.83715-1.1669c-0.1825-.75112-0.80037-0.38042-1.2903-0.37165A6.8825,6.8825,0,0,0,68.8472,32.25666ZM50.19558,35.89491c-0.74877-1.02855-1.35461-2.37227-3.06834-2.315-0.52013.01736-1.32777,0.16373-1.10407,0.6795a5.00443,5.00443,0,0,0,3.18391,2.42335,0.66631,0.66631,0,0,0,1.02154-.45316A1.776,1.776,0,0,0,50.19558,35.89491Zm22.71714,1.18869c-0.84479.20192-2.29151-.64875-2.28008,0.80273,0.00937,1.19213,1.58906.99753,2.51758,1.22939a1.30482,1.30482,0,0,0,1.80562-1.1355C74.941,36.3995,73.52883,37.59636,72.91271,37.08361ZM60.80247,20.943c-1.20181,1.27378-3.78758,1.85306-2.15863,4.563C59.8873,24.15179,61.13343,22.93366,60.80247,20.943Zm3.87018,22.651c1.52381,1.02215,2.47747,1.55066,3.7467,1.336a0.82823,0.82823,0,0,0,.73248-1.11271c-0.07453-.63115-0.46548-0.52287-0.966-0.4473C67.248,43.51151,66.28748,43.50269,64.67266,43.59394Z"/><path d="M46.63843,73.196A88.549,88.549,0,0,0,58.787,72.24611c1.29766-.23471,2.92636-0.33763,3.4814-1.89573a3.9431,3.9431,0,0,0-1.12885-4.10581,8.51258,8.51258,0,0,1-2.46643-4.82945c-0.18373-1.36781-.2367-2.29239,1.26019-2.63767,0.71638-.16526.39156-0.48669,0.1525-0.7238-0.328-.32539-1.11539-0.39733-0.54872-1.12717,0.38947-.50164.80177-0.00338,1.20673,0.01571,4.79308,0.22592,9.58563.47471,14.38109,0.632a12.98469,12.98469,0,0,1,6.33744,1.78174c1.24134,0.74531,1.32184,2.31784,1.17052,3.63019a22.351,22.351,0,0,1-6.70254,13.46965c-2.73076,2.72966-4.97464,6.03045-8.60719,7.76872-6.91489,3.309-13.91176,5.73834-21.85581,4.20552-6.41732-1.23824-12.56806-2.923-17.866-6.87463-2.812-2.09734-5.12557-4.54722-4.38446-8.56815a3.965,3.965,0,0,1,.85811-2.00339c3.96351-4.38057,7.97872-8.71606,13.05956-11.86416a9.31928,9.31928,0,0,1,2.21006-.98452c1.17775-.3533,2.62417-1.07544,3.53495.01407a4.28986,4.28986,0,0,1,.29774,4.451c-0.71073,1.77389-1.45738,3.53337-2.18072,5.30224a6.029,6.029,0,0,0-.36007,1.05373c-0.65933,3.225-1.19,4.35673,3.07993,4.24368C44.68974,73.174,45.66439,73.196,46.63843,73.196Zm17.2413-13.82366c0.76191-.47837,1.03006.8869,1.97421,0.44a1.491,1.491,0,0,1,1.91311,1.10953,2.07,2.07,0,0,1-.68391,2.41919c-1.12684.82383-2.17575,1.75574-3.31608,2.559a0.82675,0.82675,0,0,0-.34656,1.13378c0.20593,0.42021.60427,0.23171,0.96742,0.07581,0.406-.17425.85633-0.242,1.27294-0.39533a4.27127,4.27127,0,0,1,4.3663.83692,1.65825,1.65825,0,0,1,.25172,2.2451A3.33017,3.33017,0,0,1,66.3916,71.303c-3.10539-.72272-4.2446,2.354-7.23593,2.60767a10.51441,10.51441,0,0,1,2.36462,1.32739c0.73751,0.82744,2.19715,1.335,1.67458,2.87118-0.34661,1.01884-.84113,1.97184-2.19,1.84052-1.42046-.13827-2.62994-0.65077-3.03545-2.15088a22.332,22.332,0,0,1-.50241-3.06053c-0.10217-.81785-0.705-0.58293-1.18651-0.64718a1.737,1.737,0,0,0-1.61518.60389c-0.40727.51749,0.05882,0.996,0.49367,1.26742A4.179,4.179,0,0,1,56.874,78.49293c0.44754,1.50194-.91295,3.15416-2.90743,3.56718-1.86628.3865-2.109-1.08474-2.28758-2.289a7.43892,7.43892,0,0,1,.103-3.55615c0.66823-1.76543-.23461-1.727-1.41829-1.67322-0.58452.02655-1.16874,0.05934-1.949,0.09937a7.3664,7.3664,0,0,1,.44749,4.4901,2.31406,2.31406,0,0,1-2.62714,2.153c-1.63851-.08088-1.304-1.32121-1.35343-2.31868a8.08483,8.08483,0,0,1,.81309-2.99856c0.15373-.45138.30046-1.08392-0.4523-1.27474a0.9823,0.9823,0,0,0-1.25121.63527,7.22812,7.22812,0,0,0-.46059,3.51311A2.32343,2.32343,0,0,1,42.60268,81.19a1.72,1.72,0,0,1-2.24366-.01978,2.90054,2.90054,0,0,1-.74858-3.279c0.32021-1.08877,1.16055-2.01935,1.109-3.23358a0.97324,0.97324,0,0,0-1.12808.67314,11.2925,11.2925,0,0,1-3.6992,3.50414,2.053,2.053,0,0,1-2.31258-.1057c-0.75715-.58606-0.28365-1.31772-0.04665-2.03582a7.25119,7.25119,0,0,1,3.6728-4.53847c1.23423-.5894,2.23-1.4983,1.66329-2.59412-0.58507-1.13129-1.75784-.0488-2.67216.27185-0.91869.3222-2.0202,0.63792-2.68109-.29583a2.6582,2.6582,0,0,1,.094-2.91551c1.26706-2.4068,3.56994-1.75353,5.29817-1.493,1.5395,0.23214,1.89814-.29194,2.41368-1.31335,0.72042-1.42729,1.62455-3.2913.50043-4.33751-0.97229-.90491-2.972.11772-4.064,0.9181A69.93983,69.93983,0,0,0,25.43214,71.73221a4.04423,4.04423,0,0,0-.12228,4.99418,12.62739,12.62739,0,0,0,2.54392,2.78048c7.14327,6.236,16.01119,7.19524,24.90275,8.06038a1.2983,1.2983,0,0,0,.44812-0.00644c7.20236-1.9234,14.50906-3.50962,19.755-9.60605,3.55228-4.12815,7.15549-8.10494,8.13915-13.74593,0.44373-2.54445-.0311-3.93359-2.538-4.47468a57.08047,57.08047,0,0,0-14.1039-.97311c-0.41087.01451-.74009,0.14056-0.50837,0.66365a4.27424,4.27424,0,0,0-2.815-.07081c-1.44585.3697-.87284,1.64618-0.91619,2.60692-0.01536.34038,0.25607,1.00562,0.49318,0.735C61.72207,61.54153,63.36774,60.98493,63.87974,59.37237ZM34.87912,77.615c1.84229-.55,2.73062-1.85823,3.753-2.98488,0.30829-.3397.88619-0.71325,0.30881-1.29258a1.06772,1.06772,0,0,0-1.43129-.02828A6.40069,6.40069,0,0,0,34.87912,77.615Zm27.057-13.14188c2.32286,0.64588,3.33951-1.03252,4.40223-2.32929,0.47177-.57569-0.16744-0.9718-0.90594-0.89622C63.5881,61.43634,62.5793,62.54878,61.93616,64.47308ZM52.95593,78.36453c0.14475,0.75192-.18736,1.98822.89344,2.13137a1.64625,1.64625,0,0,0,1.80529-1.83623A2.05792,2.05792,0,0,0,53.81134,76.683C52.84708,76.51593,53.04013,77.6213,52.95593,78.36453ZM40.296,66.96054a6.45423,6.45423,0,0,0-4.16858-.48969,1.24834,1.24834,0,0,0-1.14239,1.59722c0.26137,1.25048,1.02064.32123,1.528,0.17346C37.62452,67.91777,38.71,67.50508,40.296,66.96054Zm24.58281,1.449c0.722,1.50149,1.91259,1.63139,3.34478,1.17084a0.95207,0.95207,0,0,0,.86116-0.84936,0.86447,0.86447,0,0,0-.77284-0.68159C67.10367,67.44991,66.001,67.95737,64.87883,68.40958ZM59.4377,75.6312c-0.29076,1.25773-.33387,2.35545.98237,2.91011a0.9381,0.9381,0,0,0,1.3814-.69952C61.93264,76.38908,60.69149,76.13973,59.4377,75.6312Zm-16.76912.37838-0.4012-.11519c-0.45227.80388-.96083,1.58252-1.33686,2.42062a1.04277,1.04277,0,0,0,.44422,1.51237c0.92023,0.37689.955-.62282,1.04863-1.00429A16.68571,16.68571,0,0,0,42.66858,76.00958Z"/><path d="M10.18634,54.73182a66.74012,66.74012,0,0,1,.54837-7.58A8.29208,8.29208,0,0,1,16.34719,40.633c3.46816-.95866,3.41377-3.30654,3.7281-5.67245,0.60108-4.52408,2.33418-8.33836,6.01382-11.17372a6.67782,6.67782,0,0,1,7.72977-.46116c2.11849,1.25066,3.67491,4.89357,3.61049,6.97619a65.5808,65.5808,0,0,0,.54754,8.63286,9.94369,9.94369,0,0,1,.0736,2.66788c-0.5735,3.35793-1.03987,3.57124-4.02466,2.00385-3.5042-1.84012-5.20048-1.94377-6.73067.24A19.43183,19.43183,0,0,0,25.145,49.15087c-1.09852,3.45589-.27258,4.35054,3.41,4.28038,1.25788-.024,3.08674-0.87308,3.71024.6121,0.63751,1.51855-1.09918,2.42566-2.077,3.398-3.4614,3.44186-7.83432,5.67333-11.63539,8.67532-1.734,1.36945-4.65495.47076-5.64355-1.61939C11.45216,61.41657,9.9889,58.29652,10.18634,54.73182ZM25.29954,44.66534c0.49441-.589.98764-1.235,1.54452-1.82048,0.406-.4269.75844-1.01617,0.25137-1.34438-1.80628-1.16913-.89959-3.146-1.48373-4.675A2.05721,2.05721,0,0,1,27.0018,34.135c1.27368-.41951,2.06053.24517,2.65008,1.41726,0.51378,1.02149.22527,2.05259,0.3845,3.06483,0.13478,0.857-.70581,2.29952.57576,2.44522,1.24917,0.142.45529-1.47216,0.94088-2.15594a1.38149,1.38149,0,0,0,.18156-0.40994,1.47637,1.47637,0,0,1,1.78927-1.28527,1.7035,1.7035,0,0,1,1.55406,1.5631,4.78923,4.78923,0,0,1-.3851,2.80347,0.91582,0.91582,0,0,0,.6627,1.37743c0.86418,0.27174.94124-.32237,0.99314-0.9962a12.17729,12.17729,0,0,0,.33933-2.18755c-0.40628-3.40216-.70108-6.8049-0.8646-10.23116a5.908,5.908,0,0,0-3.65818-5.37129c-2.25066-1.01263-3.88235-.11632-5.61811,1.36829-3.42764,2.9317-4.50215,6.8437-5.06082,11.01389-0.31554,2.3553-.67053,4.30434-3.59492,5.058a7.2579,7.2579,0,0,0-5.55825,6.08386c-0.79756,5.41158-.91314,10.83179,1.90226,15.83525,0.89948,1.59859,2.394,2.20849,3.9209,1.13922,4.271-2.99113,9.001-5.42391,12.33537-9.72-0.87863-.44786-1.77625-0.10035-2.63148-0.20649-1.96336-.24368-3.58588.03542-4.53478,2.16278-0.73147,1.63991-2.43838,1.68617-3.9179,1.40048-1.21541-.23469-1.92446-0.98452-1.1019-2.46012a4.14987,4.14987,0,0,1,3.6214-2.10032c0.54054-.0617,1.97427.22624,1.53653-1.4084-0.35128-1.31187-.89281-1.39861-2.0408-0.95957a4.018,4.018,0,0,1-3.46778-.15908c-0.698-.39024-1.61189-0.73666-1.32791-1.79211a1.834,1.834,0,0,1,1.95924-1.46975,11.17026,11.17026,0,0,1,3.94675.54438c1.30192,0.46679,1.76254-.05955,1.83551-1.33483-1.82139-.30214-4.09246.38886-5.07873-1.85571a2.038,2.038,0,0,1,.79751-2.59381C22.55427,41.31093,23.54155,44.03416,25.29954,44.66534Zm3.33555-4.10187c0-1.41.0181-2.71778-.0097-4.02455a1.11785,1.11785,0,0,0-.71075-1.0226,0.90665,0.90665,0,0,0-.74171.29035C26.59327,36.43353,27.57827,39.86733,28.63509,40.56347Zm-4.10257,4.97958c-1.62422-.65922-1.98814-2.31173-3.567-1.863a0.63675,0.63675,0,0,0-.27486.95038C21.453,45.83355,22.62155,45.85953,24.53252,45.54305Zm-1.87735,9.77117c-1.172-.28336-2.23025-0.20347-2.88669.9675-0.23829.42509,0.06505,0.698,0.4829,0.76267A1.99681,1.99681,0,0,0,22.65517,55.31423Z"/><path d="M87.794,58.18056c-0.26422-1.36634.4757-2.85068-1.67524-2.5393,2.004-.88709,2.67252-3.71652,1.41354-5.14327-0.06665-.07555-0.45982-0.18392-0.31466-0.27328,1.12723-.69383.77531-1.79065,0.8813-2.78815,0.11159-1.05061-.85438-1.96656-0.3212-3.04384C89.579,46.70636,89.6037,49.57223,87.794,58.18056Z"/></g></svg>